<svg xmlns="http://www.w3.org/2000/svg" width="180" height="28" viewBox="0 0 180 28" xmlns:xlink="http://www.w3.org/1999/xlink"><defs><path id="a" d="M0 27.92h179.848V.25H0z"/></defs><g fill="none" fill-rule="evenodd"><path fill="#616D71" d="M29.168 11.06a.348.348 0 0 0-.382-.268c-2.895.377-7.786.59-8.585-.448-1.837-2.381-.432-9.605-.418-9.678a.347.347 0 0 0-.668-.18c-.02.06-2.068 5.999-6.369 7.394-3.892 1.263-9.355-2.908-9.41-2.95a.345.345 0 0 0-.481.058.35.35 0 0 0 .05.485c.043.036 4.31 3.635 4.494 6.804-.523 1.663-5.334 3.598-7.162 4.208a.349.349 0 0 0 .208.664c.063-.018 6.31-1.843 8.897 1.438 1.209 1.533-.637 6.233-1.45 7.914a.35.35 0 0 0 .312.5.346.346 0 0 0 .292-.16c1.185-1.877 4.701-6.79 6.713-6.99 3.457-.346 7.055 4.638 7.091 4.689.11.153.321.19.477.084a.35.35 0 0 0 .094-.477c-1.081-1.67-3.678-6.387-2.715-8.141.917-1.671 6.65-3.842 8.781-4.538a.348.348 0 0 0 .231-.407"/><path fill="#616D71" d="M24.795 5.098a2.579 2.579 0 0 1 .751 3.556 2.548 2.548 0 0 1-3.535.756 2.579 2.579 0 0 1-.752-3.555 2.546 2.546 0 0 1 3.536-.757M4.628 10.047a1.902 1.902 0 0 1 .554 2.626 1.877 1.877 0 0 1-2.61.558 1.903 1.903 0 0 1-.555-2.626 1.88 1.88 0 0 1 2.61-.558m2.168 8.815a1.875 1.875 0 0 1 .547 2.586 1.852 1.852 0 0 1-2.572.55 1.874 1.874 0 0 1-.546-2.585 1.851 1.851 0 0 1 2.571-.551m10.136 3.506a2.11 2.11 0 0 1 .615 2.91 2.083 2.083 0 0 1-2.892.618 2.11 2.11 0 0 1-.615-2.908 2.084 2.084 0 0 1 2.892-.62m7.996-6.843a2.24 2.24 0 0 1 .653 3.088 2.213 2.213 0 0 1-3.071.657 2.24 2.24 0 0 1-.655-3.088 2.214 2.214 0 0 1 3.073-.657M13.497 1.899a2.576 2.576 0 0 1 .753 3.555 2.546 2.546 0 0 1-3.534.756 2.578 2.578 0 0 1-.753-3.555 2.545 2.545 0 0 1 3.535-.756M44.5 13.02c0-1.8-.489-3.204-1.467-4.212-.978-1.009-2.353-1.513-4.127-1.513-.878 0-1.64.075-2.287.225v11.825c.58.134 1.235.2 1.964.2 1.89 0 3.365-.616 4.426-1.85.994-1.183 1.491-2.741 1.491-4.675m3.332-.025c0 2.967-.904 5.267-2.71 6.9-1.724 1.567-4.086 2.35-7.086 2.35-1.657 0-3.166-.125-4.525-.375V5.045c1.426-.3 3.116-.45 5.072-.45 2.818 0 5.03.684 6.638 2.05 1.74 1.467 2.61 3.584 2.61 6.35m10.343 1.475c-.017-.816-.232-1.483-.646-2-.465-.533-1.094-.8-1.89-.8-.762 0-1.376.271-1.84.813-.464.541-.712 1.204-.746 1.987h5.122zm3.083.7c0 .25-.058.8-.174 1.65h-8.03c.198 1.884 1.309 2.825 3.331 2.825 1.144 0 2.196-.216 3.157-.65l.945 2.325c-1.442.617-2.867.925-4.276.925-1.906 0-3.443-.596-4.612-1.787-1.168-1.192-1.753-2.763-1.753-4.713 0-1.9.49-3.441 1.467-4.625 1.044-1.283 2.478-1.925 4.301-1.925 1.757 0 3.15.559 4.177 1.675.978 1.084 1.467 2.517 1.467 4.3zm10.89 3.325c0 1.267-.54 2.242-1.617 2.925-.912.55-2.022.825-3.331.825-1.293 0-2.66-.275-4.102-.825l.87-2.35c1.16.5 2.154.75 2.983.75 1.26 0 1.89-.458 1.89-1.375 0-.583-.473-1.1-1.417-1.55-1.542-.733-2.404-1.166-2.586-1.3-.945-.7-1.417-1.633-1.417-2.8 0-1.183.522-2.108 1.566-2.775.862-.55 1.873-.825 3.033-.825 1.343 0 2.536.25 3.58.75l-.845 2.325c-1.011-.383-1.923-.575-2.735-.575-1.028 0-1.541.375-1.541 1.125 0 .534.488 1 1.467 1.4 1.491.6 2.403 1.017 2.734 1.25.978.717 1.467 1.725 1.467 3.025"/><mask id="b" fill="#fff"><use xlink:href="#a"/></mask><path fill="#616D71" d="M74.932 21.97h2.983V9.47h-2.983v12.5zm3.281-16.775c0 .517-.178.938-.534 1.262-.357.325-.792.488-1.306.488-.513 0-.94-.163-1.28-.488-.34-.324-.51-.745-.51-1.262 0-.5.17-.92.51-1.263.34-.34.767-.512 1.28-.512.498 0 .929.171 1.294.513.364.341.546.762.546 1.262zm10.517 8.75c0-.7-.22-1.241-.659-1.625-.44-.383-1.007-.575-1.703-.575-.696 0-1.264.192-1.703.575-.44.384-.659.925-.659 1.625s.22 1.246.659 1.638c.439.391 1.007.587 1.703.587.696 0 1.264-.196 1.703-.587.439-.392.659-.938.659-1.638m.82 10.1c0-.583-.663-1.025-1.989-1.325-.928-.15-1.848-.3-2.76-.45-1.143.383-1.715.992-1.715 1.825 0 .583.43 1.008 1.293 1.275.58.183 1.26.275 2.039.275 2.088 0 3.132-.533 3.132-1.6m3.033-.175c0 1.433-.712 2.508-2.138 3.225-1.11.55-2.461.825-4.052.825-1.525 0-2.826-.242-3.904-.725-1.425-.667-2.137-1.667-2.137-3 0-1.617.944-2.708 2.834-3.275-.332-.466-.498-.925-.498-1.375 0-.6.29-1.141.87-1.625-1.607-.883-2.411-2.225-2.411-4.025 0-1.45.522-2.608 1.566-3.475.978-.816 2.196-1.225 3.655-1.225.315 0 .7.046 1.156.138.456.091.734.137.833.137h4.226v2.3c-.663.034-1.218-.041-1.665-.225l-.05.05c.48.834.72 1.6.72 2.3 0 1.167-.347 2.15-1.043 2.95-.696.8-1.616 1.334-2.76 1.6-.149.034-.696.092-1.64.175a1.307 1.307 0 0 0-.572.213c-.2.125-.299.27-.299.437 0 .417.63.725 1.89.925 1.756.267 2.933.534 3.53.8 1.26.567 1.89 1.525 1.89 2.875m13.151-1.9h-2.983v-7.85c0-1.533-.82-2.3-2.462-2.3-.696 0-1.533.184-2.51.55.032.234.049.409.049.525v9.075h-2.983v-9.775c0-.366-.059-.95-.174-1.75 2.32-.833 4.201-1.25 5.643-1.25 3.613 0 5.42 1.484 5.42 4.45v8.325zm15.812-.875c-1.525.75-3.042 1.125-4.55 1.125-2.569 0-4.661-.816-6.277-2.45-1.616-1.633-2.424-3.741-2.424-6.325 0-2.566.75-4.679 2.25-6.337 1.5-1.659 3.518-2.488 6.053-2.488 1.558 0 3.191.384 4.898 1.15l-1.02 2.55c-1.474-.65-2.784-.975-3.927-.975-1.558 0-2.785.592-3.68 1.775-.829 1.067-1.243 2.409-1.243 4.025 0 1.9.48 3.417 1.442 4.55 1.028 1.2 2.47 1.8 4.326 1.8 1.127 0 2.246-.266 3.357-.8l.795 2.4zM131.939 9.47l-.895 2.575a5.45 5.45 0 0 0-1.64-.25c-.796 0-1.542.109-2.238.325.016.117.025.2.025.25v9.6h-2.984v-9.525c0-.383-.075-1.008-.224-1.875 2.188-.916 4.078-1.375 5.669-1.375.828 0 1.591.092 2.287.275m9.672 6.275c0-1.083-.216-1.975-.647-2.675-.514-.85-1.276-1.275-2.287-1.275s-1.774.417-2.287 1.25c-.432.7-.647 1.6-.647 2.7s.215 1.992.647 2.675c.513.834 1.276 1.25 2.287 1.25 1.01 0 1.773-.416 2.287-1.25.43-.683.647-1.575.647-2.675m3.306-.025c0 1.9-.572 3.463-1.716 4.688-1.143 1.225-2.652 1.837-4.524 1.837-1.874 0-3.39-.625-4.55-1.875-1.127-1.2-1.69-2.75-1.69-4.65 0-1.9.571-3.462 1.715-4.687 1.144-1.225 2.651-1.838 4.525-1.838 1.872 0 3.381.613 4.524 1.838 1.144 1.225 1.716 2.787 1.716 4.687m22.276-6.25l-4.624 12.7c-1.011 0-1.807-.175-2.387-.525-.63-.383-1.11-1.033-1.442-1.95l-2.188-6.1-2.909 8.575c-1.01 0-1.798-.167-2.362-.5-.63-.383-1.118-1.033-1.466-1.95L145.96 9.47h3.381l2.934 8.8h.05l.224-.675 2.71-8.125h2.71l3.132 8.8h.05l2.784-8.8h3.257zm9.572 9.95c-.033-.233-.05-.4-.05-.5v-6.525c-.514-.4-1.193-.6-2.038-.6-1.061 0-1.865.384-2.412 1.15-.464.684-.696 1.592-.696 2.725 0 1.184.281 2.125.845 2.825.613.767 1.492 1.15 2.636 1.15.745 0 1.317-.075 1.715-.225m3.083 1.9c-1.69.617-3.299.925-4.824.925-1.972 0-3.596-.629-4.872-1.887-1.277-1.259-1.915-2.871-1.915-4.838 0-1.75.48-3.216 1.442-4.4 1.044-1.283 2.462-1.925 4.252-1.925 1.01 0 1.939.225 2.784.675V3.62h2.984v16.025c0 .334.05.892.149 1.675" mask="url(#b)"/></g></svg>